<svg width="185" height="105" viewBox="0 0 185 105" fill="none" xmlns="http://www.w3.org/2000/svg">
<path d="M85.8697 90.9719C82.0689 95.1804 76.5085 98.5705 69.1885 101.142C61.8684 103.714 53.8445 105 45.1168 105C31.6967 105 20.9747 100.908 12.9508 92.7255C4.92695 84.5424 0.633465 73.1563 0.070385 58.5671L0 49.7295C0 39.676 1.78309 30.9085 5.34926 23.4269C8.91544 15.8985 14.0066 10.1236 20.6228 6.1022C27.2859 2.03407 34.9814 0 43.7091 0C56.4723 0 66.3731 2.92251 73.4116 8.76754C80.497 14.5658 84.6263 23.2398 85.7993 34.7896H62.0092C61.1646 29.0848 59.3346 25.0167 56.5192 22.5852C53.7038 20.1536 49.7153 18.9379 44.5537 18.9379C38.3598 18.9379 33.5737 21.5564 30.1952 26.7936C26.8167 32.0307 25.104 39.5124 25.0571 49.2385V55.4108C25.0571 65.6045 26.7932 73.2732 30.2656 78.4168C33.7848 83.5137 39.2983 86.0621 46.806 86.0621C53.2345 86.0621 58.0207 84.6359 61.1646 81.7836V65.9319H43.9906V49.0281H85.8697V90.9719Z" fill="url(#paint0_linear)"/>
<path d="M160.295 76.4529C160.295 72.8524 159.004 70.0468 156.424 68.0361C153.89 66.0254 149.409 63.9446 142.98 61.7936C136.552 59.6426 131.296 57.5618 127.214 55.5511C113.935 49.0514 107.295 40.1202 107.295 28.7575C107.295 23.0995 108.937 18.1196 112.222 13.8176C115.553 9.46894 120.246 6.1022 126.299 3.71743C132.352 1.28591 139.156 0.0701403 146.711 0.0701403C154.077 0.0701403 160.67 1.37943 166.489 3.998C172.354 6.61657 176.906 10.3574 180.143 15.2204C183.381 20.0367 185 25.5544 185 31.7735H160.365C160.365 27.6119 159.075 24.3854 156.494 22.0942C153.96 19.8029 150.511 18.6573 146.147 18.6573C141.737 18.6573 138.241 19.6393 135.66 21.6032C133.126 23.5204 131.859 25.9753 131.859 28.9679C131.859 31.5865 133.267 33.9713 136.082 36.1222C138.898 38.2265 143.848 40.4242 150.934 42.7154C158.019 44.9599 163.838 47.3914 168.389 50.01C179.463 56.3694 185 65.1369 185 76.3126C185 85.2438 181.622 92.2579 174.865 97.3547C168.108 102.452 158.84 105 147.062 105C138.757 105 131.226 103.527 124.469 100.581C117.759 97.5885 112.691 93.5204 109.266 88.3768C105.887 83.1864 104.198 77.2245 104.198 70.491H128.974C128.974 75.9619 130.381 80.0067 133.197 82.6253C136.059 85.1971 140.681 86.483 147.062 86.483C151.145 86.483 154.359 85.6179 156.705 83.8878C159.098 82.1109 160.295 79.6326 160.295 76.4529Z" fill="url(#paint1_linear)"/>
<defs>
<linearGradient id="paint0_linear" x1="0" y1="48.4615" x2="197.065" y2="48.4615" gradientUnits="userSpaceOnUse">
<stop offset="0.427083" stop-color="#0E0D3D"/>
<stop offset="0.520833" stop-color="#FF416E"/>
</linearGradient>
<linearGradient id="paint1_linear" x1="0" y1="48.4615" x2="197.065" y2="48.4615" gradientUnits="userSpaceOnUse">
<stop offset="0.427083" stop-color="#0E0D3D"/>
<stop offset="0.520833" stop-color="#FF416E"/>
</linearGradient>
</defs>
</svg>
