<svg width="390" height="250" viewBox="0 0 390 250" fill="none" xmlns="http://www.w3.org/2000/svg">
<path opacity="0.8" d="M195 218.834C302.696 218.834 390 213.002 390 205.808C390 198.614 302.696 192.782 195 192.782C87.3045 192.782 0 198.614 0 205.808C0 213.002 87.3045 218.834 195 218.834Z" fill="#C6D5FA"/>
<path opacity="0.8" d="M202.463 209.668C275.988 209.668 335.593 207.292 335.593 204.361C335.593 201.43 275.988 199.054 202.463 199.054C128.938 199.054 69.3334 201.43 69.3334 204.361C69.3334 207.292 128.938 209.668 202.463 209.668Z" fill="#9CAED9"/>
<path d="M221.77 203.686L198.707 202.238V96.1983L221.77 94.751V203.686Z" fill="#175D99"/>
<path d="M330.104 94.751H221.385V203.686H330.104V94.751Z" fill="#4DA3F8"/>
<path d="M235.396 94.751H210.889V203.686H235.396V94.751Z" fill="#217CC5"/>
<path d="M269.796 96.5368L267.311 95L237.478 113.447L239.963 114.984L269.796 96.5368Z" fill="#3993F3"/>
<path d="M275.334 99.9728L272.849 98.436L237.211 120.472L239.697 122.009L275.334 99.9728Z" fill="#3993F3"/>
<path d="M280.941 103.409L278.456 101.872L235.644 128.344L238.13 129.881L280.941 103.409Z" fill="#3993F3"/>
<path d="M286.454 106.851L283.969 105.314L193.135 161.48L195.621 163.017L286.454 106.851Z" fill="#3993F3"/>
<path d="M292.023 110.267L289.538 108.73L198.704 164.897L201.19 166.434L292.023 110.267Z" fill="#3993F3"/>
<path d="M316.62 104.908L313.627 103L230.663 155.911L233.656 157.819L316.62 104.908Z" fill="#3993F3"/>
<path d="M323.32 109.157L320.327 107.249L236.164 160.91L239.157 162.818L323.32 109.157Z" fill="#3993F3"/>
<path d="M330 113.456L327.007 111.548L237.043 168.908L240.035 170.816L330 113.456Z" fill="#3993F3"/>
<path d="M322.852 130.943L320.963 129L235.88 179.477L237.769 181.42L322.852 130.943Z" fill="#3993F3"/>
<path d="M327.073 135.313L325.184 133.37L235.911 186.334L237.8 188.277L327.073 135.313Z" fill="#3993F3"/>
<path d="M331.326 139.635L329.438 137.692L237.495 192.239L239.384 194.182L331.326 139.635Z" fill="#3993F3"/>
<path d="M328.791 148.001L326.902 146.058L236.114 199.92L238.003 201.863L328.791 148.001Z" fill="#3993F3"/>
<path d="M329.002 156.895L327.251 153.843L248.057 199.483L249.807 202.535L329.002 156.895Z" fill="#3993F3"/>
<path d="M330.296 161.762V138.701L286.096 94.4617H263.081L330.296 161.762Z" fill="#E2E8FE"/>
<path d="M235.252 136.723V159.784L279.452 204.072H302.467L235.252 136.723Z" fill="url(#paint0_linear)"/>
<path d="M235.252 136.723H213.2L207.615 159.88L235.252 159.784V136.723Z" fill="url(#paint1_linear)"/>
<path d="M229.426 94.6062L213.055 202.914C213.055 202.914 201.018 203.637 201.018 202.914C201.018 202.19 216.907 95.0886 216.907 95.0886L229.426 94.6062Z" fill="#D6DEFE"/>
<path d="M302.418 127.846C302.418 127.846 306.704 161.086 306.222 172.665C305.741 184.244 304.922 185.401 304.922 185.401C304.922 185.401 313.444 183.52 317.778 181.108C322.111 178.695 323.074 170.012 322.352 164.705C321.63 159.398 303.333 126.833 303.333 126.833L302.418 127.846Z" fill="#E6E6E6"/>
<path d="M301.696 129.487C301.696 129.487 288.937 144.683 282.678 150.955C276.419 157.227 273.289 160.604 267.993 160.845C262.696 161.086 255.715 151.196 253.789 149.267C251.863 147.337 256.437 148.302 261.011 146.613C265.585 144.925 301.696 129.487 301.696 129.487Z" fill="#E6E6E6"/>
<path d="M303.381 126.833C318.307 134.07 330.344 133.346 330.344 133.346L329.863 121.768L303.381 126.833Z" fill="#E6E6E6"/>
<path d="M269.437 94.2686C264.622 102.952 276.659 116.461 287.493 120.803C298.326 125.145 300.733 125.627 300.733 125.627L273.144 94.6063L269.437 94.2686Z" fill="#E6E6E6"/>
<path d="M303.093 126.303C303.093 126.303 324.037 130.596 332.752 126.447C341.467 122.298 347.967 117.763 347.1 115.544C346.233 113.325 335.159 101.843 332.126 94.6546C329.093 87.5145 318.067 111.106 313.156 115.834C308.293 120.61 303.093 126.303 303.093 126.303Z" fill="url(#paint2_linear)"/>
<path d="M302.13 126.206C308.967 127.026 330.152 103.531 332.27 98.0798C334.389 92.6765 326.878 89.203 321.341 100.492C315.804 111.829 302.13 126.206 302.13 126.206Z" fill="url(#paint3_radial)"/>
<path d="M303.381 126.833C310.941 114.627 301.215 84.0408 293.367 80.8567C285.518 77.6726 288.985 83.8961 280.752 87.7556C272.567 91.6151 269.581 93.5448 278.441 107.391C287.252 121.189 303.381 126.833 303.381 126.833Z" fill="url(#paint4_linear)"/>
<path d="M303.141 127.46C290.574 104.11 273.77 89.4924 273.144 94.6063C272.518 99.7201 275.263 103.917 281.859 112.312C288.456 120.706 303.141 127.46 303.141 127.46Z" fill="url(#paint5_radial)"/>
<path d="M304.778 127.316C327.263 140.342 324.085 173.919 324.085 173.919C324.085 173.919 309.881 184.678 304.97 185.401C306.704 180.432 311.085 174.498 308.678 154.284C306.222 134.118 302.418 127.846 302.418 127.846L304.778 127.316Z" fill="url(#paint6_radial)"/>
<path d="M300.059 124.662C300.059 124.662 285.615 124.083 272.23 134.6C258.893 145.118 253.741 144.828 253.741 144.828C253.741 144.828 264.478 159.205 270.304 157.806C276.13 156.407 295.485 138.653 298.037 133.636C300.589 128.618 301.263 126.881 301.263 126.881L300.059 124.662Z" fill="url(#paint7_radial)"/>
<path d="M306.993 126.061C306.704 128.329 304.778 129.921 302.611 129.68C300.445 129.438 298.904 127.412 299.193 125.145C299.482 122.877 301.407 121.285 303.574 121.526C305.741 121.768 307.282 123.794 306.993 126.061Z" fill="url(#paint8_radial)"/>
<path d="M129.711 203.686H78.4815L36.8334 52.8752L98.7519 53.8401L129.711 203.686Z" fill="#47C1E7"/>
<path d="M98.7519 53.8401L36.8334 52.8752L140.593 28.6567L222.107 37.9196L98.7519 53.8401Z" fill="#ABE3F4"/>
<path d="M222.107 37.9194L208.337 203.686H129.711L98.752 53.8399L222.107 37.9194Z" fill="#88D7EF"/>
<path d="M53.3481 53.1165L78.1926 53.4542L108.863 203.686H91.0482L53.3481 53.1165Z" fill="#5D69E6"/>
<path d="M77.7593 53.406L78.1926 53.4543L108.863 203.686H108.044L77.7593 53.406Z" fill="#3A45D2"/>
<path d="M140.448 48.2919L181.904 43.2263L183.926 203.686H160.141L140.448 48.2919Z" fill="url(#paint9_linear)"/>
<path d="M140.448 48.3402L141.17 48.292L160.767 203.686H160.141L140.448 48.3402Z" fill="#3A45D2"/>
<path d="M181.904 43.2265L115.652 34.832L92.3481 39.8012L140.737 48.3403L181.904 43.2265Z" fill="#5D69E6"/>
<path d="M141.363 48.3402L93.4075 39.7046L92.252 39.8011L140.448 48.5332L141.363 48.3402Z" fill="#0614C1"/>
<path d="M78.1926 53.4543L191.485 34.3979L173.815 32.4199L53.3481 53.1166L78.1926 53.4543Z" fill="#8E9AFD"/>
<path d="M78.2408 53.5989L191.485 34.3978L189.8 34.2048L77.8075 53.4059L78.2408 53.5989Z" fill="#0614C1"/>
<g opacity="0.5">
<path opacity="0.5" d="M156.626 44.6255L118.011 40.2354L118.3 42.6958C109.778 44.3843 93.9853 50.0289 83.5853 47.7614C75.5927 46.0246 65.626 48.2921 65.626 48.2921C46.3668 55.1427 87.5334 53.4059 98.0297 53.6954C99.8112 53.1647 115.026 48.9675 121.045 45.7834C135.537 50.8008 156.626 44.6255 156.626 44.6255Z" fill="#999999"/>
</g>
<path d="M114.159 43.1298L136.982 36.7134C129.615 33.2398 105.252 28.5602 105.974 6.94688C106.07 4.29346 107.082 2.07424 109.682 1.35059C85.0779 8.24947 84.9816 7.57405 83.7297 9.64854C80.1668 15.4861 87.8223 31.1653 96.7779 36.2792C98.8482 37.4853 110.211 41.2966 114.159 43.1298Z" fill="url(#paint10_linear)"/>
<path d="M105.396 18.622C109.97 25.9069 114.304 33.9154 115.844 42.0203L133.756 40.766C130.289 22.3368 128.026 -1.73689 109.344 0.144622C108.959 0.192866 110.404 -0.193085 86.0408 6.65755C90.4223 5.40321 98.6074 7.8154 105.396 18.622Z" fill="url(#paint11_linear)"/>
<path d="M102.893 15.052C111.656 26.2446 116.711 42.6958 116.904 43.6124C116.759 43.5641 112.282 42.937 98.6075 37.6784C95.1889 36.3758 91.8667 33.5294 89.1704 30.0558C81.0334 19.7317 77.9519 3.8594 90.9519 6.70579C95.7186 7.71891 99.6667 10.903 102.893 15.052ZM98.6556 37.003C111.559 41.9239 115.844 42.5028 115.989 42.551C115.844 41.6826 110.982 26.2446 102.7 15.6792C99.6667 11.8196 95.9593 8.78028 91.4334 7.8154C79.2519 5.16199 82.1408 20.0694 89.7964 29.8146C92.3001 33.0952 95.3815 35.7486 98.6556 37.003Z" fill="#3A45D2"/>
<path d="M177.522 11.9162L157.204 3.18408C170.059 8.82862 159.708 30.4901 143.963 31.4068C125.956 32.4681 122.489 32.8541 122.296 32.9023L134.189 41.4415C134.382 41.4415 142.374 39.6082 160.382 38.5951C176.27 37.6785 190.33 17.5608 177.522 11.9162Z" fill="url(#paint12_linear)"/>
<path d="M178.63 11.0961L179.545 11.289L178.63 10.9513C162.163 3.763 157.637 1.54378 153.689 0.964849C135.585 -1.59208 126.1 16.4511 120.948 33.6742L133.274 41.6345C140.207 21.7097 162.693 4.1007 178.63 11.0961Z" fill="url(#paint13_linear)"/>
<path d="M171.937 9.50405C194.085 10.9031 181.904 33.9155 164.956 38.4986C163.463 38.8846 161.922 39.1741 160.333 39.2705C141.219 40.3801 128.796 42.2617 132.889 41.731C133.274 40.4766 142.519 16.017 163.559 10.3242C166.159 9.64878 168.904 9.31107 171.937 9.50405ZM164.667 37.8715C180.604 33.5295 192.063 11.9162 171.215 10.5654C168.422 10.3724 165.774 10.6619 163.367 11.3373C145.793 16.1135 134.574 39.753 134.237 40.9591C134.43 40.9591 142.278 39.6565 160.333 38.5951C161.778 38.4986 163.222 38.2574 164.667 37.8715Z" fill="#6372EF"/>
<path d="M150.27 17.2712L129.47 19.8282C115.652 21.5167 117.096 42.3581 116.904 43.5159L132.937 41.6827C133.178 40.5248 136.452 18.9598 150.27 17.2712Z" fill="#3A45D2"/>
<path d="M154.17 45.3491C150.8 45.5903 138.715 42.2133 132.793 41.5378L114.881 43.6606C122.537 46.8929 129.567 48.0508 132.359 48.0508C133.467 48.099 131.396 48.1473 154.17 45.3491Z" fill="#6372EF"/>
<path d="M160.863 18.4773C153.833 14.859 149.644 16.3545 129.518 18.815C134.044 18.2843 139.533 20.1176 142.952 22.8675C153.4 31.1654 145.985 47.1824 134.285 48.5815L155.085 46.0245C168.133 44.4807 175.163 25.8103 160.863 18.4773Z" fill="url(#paint14_linear)"/>
<path d="M137.126 19.7799C155.759 26.1963 147.478 47.6166 133.659 48.678C132.456 48.7745 131.156 48.7262 129.856 48.4367C113.919 45.3491 116.759 43.1782 116.567 43.1782C116.759 41.9238 114.978 19.9246 130.193 18.7667C132.311 18.622 134.574 18.9115 137.126 19.7799ZM133.37 47.9061C146.37 46.8929 154.17 26.727 136.644 20.6965C134.285 19.8764 132.119 19.5869 130.144 19.7799C115.796 20.8895 117.867 41.4896 117.674 42.6475C117.819 42.6475 114.833 44.7702 129.807 47.7131C131.011 47.9061 132.215 48.0026 133.37 47.9061Z" fill="url(#paint15_linear)"/>
<path d="M103.759 23.4946C103.47 23.3981 103.182 23.3016 102.845 23.2051L86.3297 18.429C86.6186 18.5254 86.9556 18.6219 87.2445 18.7184C95.6704 21.6613 101.641 30.9724 103.952 39.5115L116.663 43.2263C116.47 42.4544 116.037 27.7883 103.759 23.4946Z" fill="#3A45D2"/>
<path d="M103.952 39.5598C103.759 39.6081 100.293 40.2835 82.237 45.0114C78.5296 45.9763 74.9667 45.8798 71.837 44.9631L88.3519 49.7393C91.4815 50.6559 95.0444 50.7524 98.7519 49.7875C116.807 45.0596 116.759 43.2746 116.952 43.2264L103.952 39.5598Z" fill="#3A45D2"/>
<path d="M103.085 22.3368L86.5704 17.5606C66.0593 11.6266 45.3556 38.2573 71.163 45.7351L87.6778 50.5112C74.8704 46.7965 69.1889 30.9242 88.4963 23.4464C93.263 21.6131 98.2222 20.9377 103.085 22.3368Z" fill="url(#paint16_linear)"/>
<path d="M104.048 22.6263C117.096 27.1612 117 42.4546 117.241 43.3229C117.048 43.3712 117.915 45.4939 98.7038 50.5595C94.3705 51.7174 90.2297 51.4279 86.7149 50.1736C74.6297 45.9764 69.7186 30.7313 88.4964 23.4464C94.6594 21.0825 99.7631 21.1307 104.048 22.6263ZM98.752 49.7876C116.808 45.0597 115.748 42.937 115.941 42.937C115.7 42.1168 116.037 27.7884 103.808 23.5429C99.8112 22.1439 94.9483 22.0956 89.1705 24.3148C71.452 31.1655 76.1223 45.5422 87.4853 49.4982C90.8075 50.6078 94.7075 50.849 98.752 49.7876Z" fill="#8593FF"/>
<defs>
<linearGradient id="paint0_linear" x1="279.609" y1="125.008" x2="256.652" y2="221.476" gradientUnits="userSpaceOnUse">
<stop offset="0.1647" stop-color="#EBEFFF"/>
<stop offset="0.4741" stop-color="#D8E0FF"/>
<stop offset="1" stop-color="#AFC0FF"/>
</linearGradient>
<linearGradient id="paint1_linear" x1="298.429" y1="115.057" x2="201.587" y2="158.213" gradientUnits="userSpaceOnUse">
<stop offset="0.1647" stop-color="#EBEFFF"/>
<stop offset="0.4741" stop-color="#D8E0FF"/>
<stop offset="1" stop-color="#AFC0FF"/>
</linearGradient>
<linearGradient id="paint2_linear" x1="341.349" y1="103.574" x2="306.757" y2="128.019" gradientUnits="userSpaceOnUse">
<stop stop-color="#C8D4FF"/>
<stop offset="0.0755832" stop-color="#E3E9FF"/>
<stop offset="0.1533" stop-color="#F7F9FF"/>
<stop offset="0.2048" stop-color="white"/>
<stop offset="0.4344" stop-color="#ECF0FF"/>
<stop offset="0.8985" stop-color="#BBC9FF"/>
<stop offset="1" stop-color="#AFC0FF"/>
</linearGradient>
<radialGradient id="paint3_radial" cx="0" cy="0" r="1" gradientUnits="userSpaceOnUse" gradientTransform="translate(325.484 134.971) rotate(6.79583) scale(39.9863 40.0636)">
<stop offset="0.1647" stop-color="#EBEFFF"/>
<stop offset="0.4741" stop-color="#D8E0FF"/>
<stop offset="1" stop-color="#AFC0FF"/>
</radialGradient>
<linearGradient id="paint4_linear" x1="281.07" y1="85.0258" x2="303.546" y2="120.846" gradientUnits="userSpaceOnUse">
<stop stop-color="#C8D4FF"/>
<stop offset="0.0755832" stop-color="#E3E9FF"/>
<stop offset="0.1533" stop-color="#F7F9FF"/>
<stop offset="0.2048" stop-color="white"/>
<stop offset="0.5456" stop-color="#D6DEFF"/>
<stop offset="0.8337" stop-color="#BAC8FF"/>
<stop offset="1" stop-color="#AFC0FF"/>
</linearGradient>
<radialGradient id="paint5_radial" cx="0" cy="0" r="1" gradientUnits="userSpaceOnUse" gradientTransform="translate(307.038 105.441) rotate(6.79585) scale(32.7551 32.8185)">
<stop offset="0.1647" stop-color="#EBEFFF"/>
<stop offset="0.4741" stop-color="#D8E0FF"/>
<stop offset="1" stop-color="#AFC0FF"/>
</radialGradient>
<radialGradient id="paint6_radial" cx="0" cy="0" r="1" gradientUnits="userSpaceOnUse" gradientTransform="translate(312.507 157.279) rotate(6.79583) scale(22.4619 22.5053)">
<stop offset="0.1647" stop-color="#EBEFFF"/>
<stop offset="0.4741" stop-color="#D8E0FF"/>
<stop offset="1" stop-color="#AFC0FF"/>
</radialGradient>
<radialGradient id="paint7_radial" cx="0" cy="0" r="1" gradientUnits="userSpaceOnUse" gradientTransform="translate(276.984 140.384) rotate(6.79584) scale(20.5214 20.561)">
<stop offset="0.1647" stop-color="#EBEFFF"/>
<stop offset="0.4741" stop-color="#D8E0FF"/>
<stop offset="1" stop-color="#AFC0FF"/>
</radialGradient>
<radialGradient id="paint8_radial" cx="0" cy="0" r="1" gradientUnits="userSpaceOnUse" gradientTransform="translate(303.112 125.593) rotate(6.79587) scale(4.00785 4.01562)">
<stop offset="0.1647" stop-color="#EBEFFF"/>
<stop offset="0.4741" stop-color="#D8E0FF"/>
<stop offset="1" stop-color="#AFC0FF"/>
</radialGradient>
<linearGradient id="paint9_linear" x1="186.192" y1="-36.9563" x2="139.549" y2="278.242" gradientUnits="userSpaceOnUse">
<stop offset="0.0196078" stop-color="#384BE5"/>
<stop offset="0.2883" stop-color="#8F9BFF"/>
<stop offset="0.3994" stop-color="#8A96FD"/>
<stop offset="0.5232" stop-color="#7D89F7"/>
<stop offset="0.653" stop-color="#6773ED"/>
<stop offset="0.7872" stop-color="#4855DF"/>
<stop offset="0.9232" stop-color="#202DCD"/>
<stop offset="1" stop-color="#0614C1"/>
</linearGradient>
<linearGradient id="paint10_linear" x1="128.225" y1="42.2033" x2="90.1893" y2="7.32737" gradientUnits="userSpaceOnUse">
<stop offset="0.0196078" stop-color="#6372EF"/>
<stop offset="0.3938" stop-color="#8593FF"/>
<stop offset="1" stop-color="#3A45D2"/>
</linearGradient>
<linearGradient id="paint11_linear" x1="89.7538" y1="-16.7291" x2="130.038" y2="44.6998" gradientUnits="userSpaceOnUse">
<stop offset="0.0196078" stop-color="#6372EF"/>
<stop offset="0.3938" stop-color="#8593FF"/>
<stop offset="1" stop-color="#3A45D2"/>
</linearGradient>
<linearGradient id="paint12_linear" x1="125.184" y1="18.2068" x2="180.693" y2="29.2561" gradientUnits="userSpaceOnUse">
<stop offset="0.0196078" stop-color="#6372EF"/>
<stop offset="0.3938" stop-color="#8593FF"/>
<stop offset="1" stop-color="#3A45D2"/>
</linearGradient>
<linearGradient id="paint13_linear" x1="185.68" y1="-8.61157" x2="125.377" y2="29.5018" gradientUnits="userSpaceOnUse">
<stop offset="0.0196078" stop-color="#6372EF"/>
<stop offset="0.3938" stop-color="#8593FF"/>
<stop offset="1" stop-color="#3A45D2"/>
</linearGradient>
<linearGradient id="paint14_linear" x1="146.649" y1="10.1434" x2="153.285" y2="49.2504" gradientUnits="userSpaceOnUse">
<stop offset="0.0196078" stop-color="#6372EF"/>
<stop offset="0.3938" stop-color="#A9B3FF"/>
<stop offset="1" stop-color="#3A45D2"/>
</linearGradient>
<linearGradient id="paint15_linear" x1="117.814" y1="30.6152" x2="147.38" y2="37.0603" gradientUnits="userSpaceOnUse">
<stop offset="0.0196078" stop-color="#6372EF"/>
<stop offset="0.3938" stop-color="#8593FF"/>
<stop offset="1" stop-color="#3A45D2"/>
</linearGradient>
<linearGradient id="paint16_linear" x1="86.5535" y1="9.89009" x2="75.0314" y2="46.3839" gradientUnits="userSpaceOnUse">
<stop offset="0.0196078" stop-color="#6372EF"/>
<stop offset="0.5137" stop-color="#9FAAFF"/>
<stop offset="1" stop-color="#3A45D2"/>
</linearGradient>
</defs>
</svg>
