<svg width="16" height="16" viewBox="0 0 16 16" fill="none" xmlns="http://www.w3.org/2000/svg">
<path opacity="0.9" d="M15.3854 5.14193C15.3854 5.08238 15.3782 5.02034 15.3638 4.95583C15.3494 4.89131 15.3326 4.83176 15.3133 4.77717C15.2941 4.72258 15.2677 4.67047 15.234 4.62084C15.2003 4.57121 15.1619 4.52407 15.1186 4.4794C15.0753 4.43474 15.0297 4.39503 14.9816 4.36029C14.9335 4.32556 14.8806 4.29578 14.8229 4.27096C14.7652 4.24615 14.7076 4.2263 14.6499 4.21141C14.5922 4.19652 14.5297 4.18908 14.4624 4.18908H12.8902C13.3326 3.74243 13.5537 3.20149 13.5537 2.56625C13.5537 2.26848 13.5008 1.99553 13.3951 1.74739C13.2893 1.49925 13.0994 1.28585 12.8253 1.10719C12.5513 0.928533 12.2124 0.839203 11.8085 0.839203C11.6451 0.839203 11.4792 0.856573 11.3109 0.891312C11.1427 0.926052 10.9816 0.978161 10.8277 1.04764C10.6739 1.11712 10.5225 1.19404 10.3734 1.27841C10.2244 1.36278 10.0802 1.45955 9.94073 1.56873C9.80131 1.67791 9.66669 1.78958 9.53688 1.90372C9.40708 2.01786 9.28208 2.14193 9.16188 2.27593C9.04169 2.40992 8.92871 2.53895 8.82294 2.66302C8.71717 2.78709 8.61381 2.91613 8.51285 3.05012C8.41188 3.18412 8.32294 3.3057 8.24602 3.41489C8.1691 3.52407 8.09698 3.63821 8.02967 3.75732C7.82775 3.4397 7.609 3.13449 7.37342 2.84168C7.13785 2.54888 6.85179 2.24119 6.51525 1.91861C6.17871 1.59603 5.80852 1.33548 5.40467 1.13697C5.00083 0.938458 4.60179 0.839203 4.20756 0.839203C3.80371 0.839203 3.46477 0.928533 3.19073 1.10719C2.91669 1.28585 2.72679 1.49925 2.62102 1.74739C2.51525 1.99553 2.46236 2.26848 2.46236 2.56625C2.46236 3.20149 2.68833 3.74739 3.14025 4.20397H1.53929C1.27967 4.20397 1.06092 4.29578 0.883038 4.4794C0.705153 4.66302 0.616211 4.88883 0.616211 5.15682V8.00049H1.55371V14.2089C1.55371 14.467 1.64265 14.6903 1.82054 14.8789C1.99842 15.0675 2.21717 15.1618 2.47679 15.1618H13.5393C13.7989 15.1618 14.0177 15.0675 14.1955 14.8789C14.3734 14.6903 14.4624 14.467 14.4624 14.2089V8.00049H15.3854V5.14193ZM11.8085 1.79206C12.3566 1.79206 12.6306 2.05012 12.6306 2.56625C12.6306 2.90372 12.5201 3.199 12.2989 3.45211C12.0777 3.70521 11.8013 3.89131 11.4696 4.01042C11.1378 4.12953 10.7845 4.18908 10.4095 4.18908H8.85179C9.03448 3.91116 9.22919 3.64565 9.43592 3.39255C9.64265 3.13945 9.87583 2.88635 10.1354 2.63325C10.3951 2.38015 10.6715 2.17667 10.9648 2.02283C11.258 1.86898 11.5393 1.79206 11.8085 1.79206ZM4.20756 1.79206C4.72679 1.79206 5.25323 2.03523 5.78688 2.52158C6.32054 3.00794 6.7941 3.56377 7.20756 4.18908H5.64986C5.06333 4.18908 4.53929 4.0402 4.07775 3.74243C3.61621 3.44466 3.38544 3.04764 3.38544 2.55136C3.38544 2.07493 3.63063 1.8268 4.12102 1.80694C4.14986 1.79702 4.17871 1.79206 4.20756 1.79206ZM14.4624 7.04764H8.46236V5.14193H14.4624V7.04764ZM1.53929 5.14193H7.53929V7.04764H1.53929V5.14193ZM2.47679 8.00049H7.53929V14.2089H2.47679V8.00049ZM13.5393 14.2089H8.46236V8.00049H13.5393V14.2089Z" fill="#FF416E"/>
</svg>
